<?xml version="1.0" encoding="utf-8"?>
<!-- Generator: Adobe Illustrator 25.2.0, SVG Export Plug-In . SVG Version: 6.00 Build 0)  -->
<svg version="1.1" id="Layer_1" xmlns="http://www.w3.org/2000/svg" xmlns:xlink="http://www.w3.org/1999/xlink" x="0px" y="0px"
	 viewBox="0 0 32 32" style="enable-background:new 0 0 32 32;" xml:space="preserve">
<style type="text/css">
	.st0{fill:#101820;}
	.st1{fill:#FFFFFF;}
</style>
<g id="Layer_18">
	<circle class="st0" cx="16.1" cy="16" r="15.9"/>
	<path class="st1" d="M10.6,21.8c-0.2,0-0.4-0.2-0.4-0.4c0,0,0,0,0,0l0.3-3.2c0-0.1,0-0.2,0.1-0.2l7.4-7.4c0.5-0.5,1.4-0.5,2,0
		c0,0,0,0,0,0l1.4,1.4c0.5,0.5,0.5,1.4,0,2c0,0,0,0,0,0L14,21.4c-0.1,0.1-0.1,0.1-0.2,0.1L10.6,21.8L10.6,21.8z M13.8,21.1
		L13.8,21.1z M11.3,18.4L11,21l2.6-0.3l7.3-7.3c0.2-0.2,0.2-0.6,0-0.9l-1.4-1.4c-0.2-0.2-0.6-0.2-0.9,0L11.3,18.4z"/>
	<path class="st1" d="M20.1,15.1c-0.1,0-0.2,0-0.3-0.1L17,12.2c-0.2-0.2-0.1-0.4,0-0.6c0.2-0.2,0.4-0.1,0.6,0l2.8,2.8
		c0.2,0.2,0.2,0.4,0,0.5C20.3,15.1,20.2,15.1,20.1,15.1z"/>
	<rect x="13" y="16.1" transform="matrix(0.7071 -0.7071 0.7071 0.7071 -7.1229 15.8021)" class="st1" width="5" height="0.8"/>
</g>
</svg>
